<?xml version="1.0" encoding="UTF-8"?>
<svg xmlns="http://www.w3.org/2000/svg" xmlns:xlink="http://www.w3.org/1999/xlink" viewBox="0 0 48 48" width="48px" height="48px">
<g id="surface30939845">
<path style=" stroke:none;fill-rule:nonzero;fill:rgb(36.470589%,68.627453%,38.039216%);fill-opacity:1;" d="M 24 6.75 C 18.625 6.75 14.25 11.125 14.25 16.5 L 14.25 20.511719 C 12.503906 21.128906 11.25 22.792969 11.25 24.75 L 11.25 36.75 C 11.25 39.234375 13.265625 41.25 15.75 41.25 L 32.25 41.25 C 34.734375 41.25 36.75 39.234375 36.75 36.75 L 36.75 24.75 C 36.75 22.792969 35.496094 21.128906 33.75 20.511719 L 33.75 16.5 C 33.75 11.125 29.375 6.75 24 6.75 Z M 24 9.75 C 27.722656 9.75 30.75 12.777344 30.75 16.5 L 30.75 20.25 L 17.25 20.25 L 17.25 16.5 C 17.25 12.777344 20.277344 9.75 24 9.75 Z M 24 9.75 "/>
</g>
</svg>
